#!OML:ASF E:\Mandelcareful walks\Project 1\Capture day 1\Session 1\Subject1.ASF
:FULLY-SPECIFIED
:DEGREES
265
root -14.1989 13.8476 2.70702 -171.302 44.6364 173.935
lowerback 21.4561 5.98315 0.198438
upperback 6.425 8.60837 -6.92212
thorax -3.66841 4.80117 -9.72363
lowerneck -5.07912 24.3902 15.9854
upperneck 10.1598 37.3313 -23.8467
head 11.7706 16.9644 -3.84752
rclavicle -4.80065e-014 -1.24737e-014
rhumerus 16.1555 23.5704 -32.4124
rradius 102.077
rwrist -35.4497
rhand -8.49297 -16.1959
rfingers 7.12502
rthumb 17.4345 -45.4341
lclavicle -4.80065e-014 -1.24737e-014
lhumerus 1.16245 -55.5736 64.3038
lradius 80.1838
lwrist 9.65672
lhand -23.9468 -15.1899
lfingers 7.12502
lthumb 2.52869 14.7749
rfemur -37.4701 -48.9829 11.5347
rtibia 84.031
rfoot -33.51 -13.4325
rtoes -31.1188
lfemur -67.3531 1.36148 -12.8568
ltibia 63.8256
lfoot -6.25655 -8.0185
ltoes -12.8005
266
root -14.1772 13.8006 2.69184 -170.842 44.6032 173.921
lowerback 21.2861 5.84662 0.115453
upperback 6.28558 8.39511 -7.15369
thorax -3.74173 4.69075 -9.87939
lowerneck -4.79042 24.4511 15.9347
upperneck 10.2932 37.4865 -23.6924
head 11.7496 17.0422 -3.79584
rclavicle 7.9343e-014 -2.41803e-014
rhumerus 21.327 18.7231 -29.1194
rradius 105.03
rwrist -37.643
rhand -8.04867 -15.0515
rfingers 7.12502
rthumb 17.862 -44.2512
lclavicle 7.9343e-014 -2.41803e-014
lhumerus 1.16264 -55.4015 63.515
lradius 80.7161
lwrist 9.22029
lhand -23.3801 -15.5095
lfingers 7.12502
lthumb 3.07602 14.4481
rfemur -38.209 -49.4193 11.5852
rtibia 84.6821
rfoot -32.9219 -12.5372
rtoes -31.1646
lfemur -68.2272 1.37706 -12.7988
ltibia 64.4404
lfoot -6.33626 -7.99637
ltoes -12.4426
267
root -14.1516 13.7644 2.68627 -170.394 44.6181 173.982
lowerback 21.252 5.77843 0.0687113
upperback 6.18134 8.28991 -7.43749
thorax -3.81397 4.64285 -10.1564
lowerneck -4.57853 24.4651 16.1665
upperneck 10.3111 37.5614 -23.7588
head 11.7963 17.0783 -3.83468
rclavicle 1.26228e-014 -2.37051e-014
rhumerus 26.1328 13.1199 -26.5712
rradius 107.896
rwrist -40.9299
rhand -7.95079 -14.9091
rfingers 7.12502
rthumb 17.9562 -44.1002
lclavicle 1.26228e-014 -2.37051e-014
lhumerus 1.71562 -55.4582 62.0902
lradius 81.3404
lwrist 9.19132
lhand -23.0718 -15.6644
lfingers 7.12502
lthumb 3.37377 14.2887
rfemur -38.9643 -49.7079 11.7735
rtibia 85.3106
rfoot -32.3289 -11.8834
rtoes -30.7869
lfemur -68.9978 1.5951 -12.7585
ltibia 64.9875
lfoot -6.16232 -8.12695
ltoes -11.4234
268
root -14.1196 13.7393 2.68422 -170.178 44.4908 173.954
lowerback 21.3872 5.68548 0.0315306
upperback 6.19916 8.1812 -7.7269
thorax -3.83732 4.60951 -10.4605
lowerneck -4.57432 24.4489 16.415
upperneck 10.3711 37.5728 -23.8346
head 11.8884 17.0647 -3.86764
rclavicle -1.35174e-014 4.69132e-014
rhumerus 30.5008 7.34867 -24.3863
rradius 110.808
rwrist -43.7408
rhand -9.47228 -15.3491
rfingers 7.12502
rthumb 16.4918 -44.6681
lclavicle -1.35174e-014 4.69132e-014
lhumerus 2.59094 -55.6059 60.332
lradius 82.0626
lwrist 9.41244
lhand -23.2484 -15.8658
lfingers 7.12502
lthumb 3.20321 14.0899
rfemur -39.2557 -50.0717 11.6905
rtibia 85.8648
rfoot -32.0522 -11.2828
rtoes -31.0607
lfemur -69.5292 1.71914 -12.8298
ltibia 65.5014
lfoot -6.24167 -8.32483
ltoes -10.9139
269
root -14.0808 13.7167 2.67975 -170.116 44.0995 173.819
lowerback 21.6269 5.53533 -0.122673
upperback 6.24586 7.9719 -7.89719
thorax -3.93639 4.51965 -10.5554
lowerneck -4.74845 24.4619 16.3023
upperneck 10.6848 37.6225 -23.5778
head 11.9555 17.047 -3.75193
rclavicle -1.49089e-015 8.74653e-015
rhumerus 34.706 1.16078 -23.6706
rradius 113.13
rwrist -46.4619
rhand -8.23216 -16.0934
rfingers 7.12502
rthumb 17.6854 -45.3092
lclavicle -1.49089e-015 8.74653e-015
lhumerus 3.11494 -55.5076 59.215
lradius 82.6514
lwrist 9.36531
lhand -23.2391 -16.7358
lfingers 7.12502
lthumb 3.21217 13.2197
rfemur -39.0722 -50.6591 11.3285
rtibia 86.3154
rfoot -32.0217 -10.5483
rtoes -31.5998
lfemur -69.9462 1.59504 -12.9729
ltibia 65.9622
lfoot -6.66698 -8.59589
ltoes -11.9436
270
root -14.0375 13.6888 2.67879 -169.789 43.6351 173.98
lowerback 21.9294 5.38183 -0.143929
upperback 6.13835 7.74164 -7.97419
thorax -4.23898 4.39179 -10.6407
lowerneck -4.63301 24.4756 16.1727
upperneck 11.0286 37.7009 -23.1986
head 11.9539 17.0741 -3.63278
rclavicle -1.55648e-013 9.50191e-014
rhumerus 38.8555 -4.29599 -24.1636
rradius 114.598
rwrist -48.3847
rhand -7.8519 -15.0327
rfingers 7.12502
rthumb 18.0513 -44.215
lclavicle -1.55648e-013 9.50191e-014
lhumerus 3.0934 -55.3017 58.7072
lradius 83.1209
lwrist 9.2489
lhand -22.9931 -17.3354
lfingers 7.12502
lthumb 3.44975 12.6165
rfemur -39.0239 -51.2082 11.3824
rtibia 86.7572
rfoot -32.2085 -9.87722
rtoes -31.8288
lfemur -70.469 1.536 -12.8462
ltibia 66.4087
lfoot -6.74759 -8.94704
ltoes -11.6836
271
root -14.0088 13.6527 2.67314 -169.152 43.1879 174.356
lowerback 22.2229 5.38194 0.38775
upperback 5.91184 7.82408 -8.28818
thorax -4.50167 4.42581 -11.3993
lowerneck -4.49662 24.2503 16.9851
upperneck 11.4394 37.4391 -23.0296
head 12.1499 16.9587 -3.72735
rclavicle 2.14687e-014 3.57812e-015
rhumerus 42.0158 -9.32159 -25.2263
rradius 115.879
rwrist -50.5403
rhand -7.82428 -14.8172
rfingers 7.12502
rthumb 18.0779 -43.9971
lclavicle 2.14687e-014 3.57812e-015
lhumerus 4.00381 -55.8934 57.3001
lradius 83.5559
lwrist 9.19663
lhand -22.6134 -17.4541
lfingers 7.12502
lthumb 3.81645 12.4915
rfemur -39.5612 -51.7021 11.9279
rtibia 87.2351
rfoot -32.0408 -9.56249
rtoes -32.0805
lfemur -71.2517 1.48149 -12.5493
ltibia 66.8438
lfoot -6.43979 -9.16338
ltoes -10.0497
272
root -13.9631 13.6293 2.67086 -168.661 42.6499 174.659
lowerback 22.3708 5.40742 0.659965
upperback 5.84257 7.92228 -8.5062
thorax -4.56132 4.48374 -11.865
lowerneck -4.44937 24.0617 17.6355
upperneck 11.6312 37.156 -22.9557
head 12.2662 16.8363 -3.83836
rclavicle 1.8149e-013 -6.36111e-015
rhumerus 45.3196 -13.9404 -26.5796
rradius 116.869
rwrist -53.1442
rhand -8.33679 -16.2717
rfingers 7.12502
rthumb 17.5848 -45.4964
lclavicle 1.8149e-013 -6.36111e-015
lhumerus 5.12594 -56.2319 55.9862
lradius 83.8326
lwrist 9.08318
lhand -22.1958 -17.5895
lfingers 7.12502
lthumb 4.2197 12.3484
rfemur -39.7087 -52.1597 12.3531
rtibia 87.5749
rfoot -31.9097 -9.50952
rtoes -32.2869
lfemur -71.7805 1.32918 -12.235
ltibia 67.1871
lfoot -6.48913 -9.41661
ltoes -9.85421
273
root -13.9182 13.6161 2.66666 -168.247 42.005 174.872
lowerback 22.4759 5.39342 0.903175
upperback 5.84068 7.98082 -8.72173
thorax -4.53544 4.53282 -12.2901
lowerneck -4.63932 24.045 18.12
upperneck 12.18 37.0153 -22.303
head 12.4023 16.7552 -3.69874
rclavicle 2.0276e-014 -4.31363e-014
rhumerus 48.6099 -18.0304 -28.1352
rradius 117.627
rwrist -55.7632
rhand -6.2331 -15.0892
rfingers 7.12502
rthumb 19.6083 -44.1204
lclavicle 2.0276e-014 -4.31363e-014
lhumerus 6.28633 -56.4447 54.8285
lradius 84.0466
lwrist 9.2
lhand -22.5772 -17.1442
lfingers 7.12502
lthumb 3.85143 12.8008
rfemur -39.7195 -52.6672 12.7071
rtibia 87.8104
rfoot -31.9992 -9.45263
rtoes -32.4702
lfemur -72.234 0.968826 -11.9132
ltibia 67.4425
lfoot -6.71895 -9.63719
ltoes -10.438
